<svg xmlns="http://www.w3.org/2000/svg" xmlns:xlink="http://www.w3.org/1999/xlink" width="500" zoomAndPan="magnify" viewBox="0 0 375 374.999991" height="500" preserveAspectRatio="xMidYMid meet" version="1.0"><defs><g><g id="id1"/><g id="id2"/></g><clipPath id="id3"><path d="M 148 174 L 153 174 L 153 178.074219 L 148 178.074219 Z M 148 174 " clip-rule="nonzero"/></clipPath><clipPath id="id4"><path d="M 131 134.574219 L 183.472656 134.574219 L 183.472656 178.074219 L 131 178.074219 Z M 131 134.574219 " clip-rule="nonzero"/></clipPath></defs><path fill="rgb(95.689392%, 39.608765%, 18.818665%)" d="M 144.640625 150.316406 L 149.5 150.316406 L 149.5 155.144531 L 144.640625 155.144531 Z M 144.640625 150.316406 " fill-opacity="1" fill-rule="evenodd"/><path fill="rgb(16.468811%, 18.03894%, 18.818665%)" d="M 157.746094 146.523438 L 161.652344 146.523438 L 161.652344 150.402344 L 157.746094 150.402344 Z M 157.746094 146.523438 " fill-opacity="1" fill-rule="evenodd"/><path fill="rgb(95.689392%, 39.608765%, 18.818665%)" d="M 150.195312 155.960938 L 154.101562 155.960938 L 154.101562 159.835938 L 150.195312 159.835938 Z M 150.195312 155.960938 " fill-opacity="1" fill-rule="evenodd"/><path fill="rgb(16.468811%, 18.03894%, 18.818665%)" d="M 145.292969 160.183594 L 147.242188 160.183594 L 147.242188 162.121094 L 145.292969 162.121094 Z M 145.292969 160.183594 " fill-opacity="1" fill-rule="evenodd"/><path fill="rgb(16.468811%, 18.03894%, 18.818665%)" d="M 143.75 145.125 L 145.703125 145.125 L 145.703125 147.0625 L 143.75 147.0625 Z M 143.75 145.125 " fill-opacity="1" fill-rule="evenodd"/><path fill="rgb(16.468811%, 18.03894%, 18.818665%)" d="M 153.296875 150.554688 L 155.25 150.554688 L 155.25 152.492188 L 153.296875 152.492188 Z M 153.296875 150.554688 " fill-opacity="1" fill-rule="evenodd"/><path fill="rgb(16.468811%, 18.03894%, 18.818665%)" d="M 163.710938 144.886719 L 165.664062 144.886719 L 165.664062 146.824219 L 163.710938 146.824219 Z M 163.710938 144.886719 " fill-opacity="1" fill-rule="evenodd"/><path fill="rgb(16.468811%, 18.03894%, 18.818665%)" d="M 162.101562 141.265625 L 164.84375 141.265625 L 164.84375 143.992188 L 162.101562 143.992188 Z M 162.101562 141.265625 " fill-opacity="1" fill-rule="evenodd"/><path fill="rgb(16.468811%, 18.03894%, 18.818665%)" d="M 152.1875 137.21875 L 154.933594 137.21875 L 154.933594 139.941406 L 152.1875 139.941406 Z M 152.1875 137.21875 " fill-opacity="1" fill-rule="evenodd"/><path fill="rgb(16.468811%, 18.03894%, 18.818665%)" d="M 158.839844 140.222656 L 160.792969 140.222656 L 160.792969 142.160156 L 158.839844 142.160156 Z M 158.839844 140.222656 " fill-opacity="1" fill-rule="evenodd"/><path fill="rgb(16.468811%, 18.03894%, 18.818665%)" d="M 168.746094 146.160156 L 170.699219 146.160156 L 170.699219 148.097656 L 168.746094 148.097656 Z M 168.746094 146.160156 " fill-opacity="1" fill-rule="evenodd"/><path fill="rgb(95.689392%, 39.608765%, 18.818665%)" d="M 157.71875 152.261719 L 162.714844 152.261719 L 162.714844 157.21875 L 157.71875 157.21875 Z M 157.71875 152.261719 " fill-opacity="1" fill-rule="evenodd"/><path fill="rgb(95.689392%, 39.608765%, 18.818665%)" d="M 147.28125 164.949219 L 153.011719 164.949219 L 153.011719 170.636719 L 147.28125 170.636719 Z M 147.28125 164.949219 " fill-opacity="1" fill-rule="evenodd"/><path fill="rgb(16.468811%, 18.03894%, 18.818665%)" d="M 154.464844 161.269531 L 158.371094 161.269531 L 158.371094 165.148438 L 154.464844 165.148438 Z M 154.464844 161.269531 " fill-opacity="1" fill-rule="evenodd"/><path fill="rgb(95.689392%, 39.608765%, 18.818665%)" d="M 160.617188 166.324219 L 164.523438 166.324219 L 164.523438 170.203125 L 160.617188 170.203125 Z M 160.617188 166.324219 " fill-opacity="1" fill-rule="evenodd"/><g clip-path="url(#id3)"><path fill="rgb(16.468811%, 18.03894%, 18.818665%)" d="M 148.550781 174.195312 L 152.453125 174.195312 L 152.453125 178.074219 L 148.550781 178.074219 Z M 148.550781 174.195312 " fill-opacity="1" fill-rule="evenodd"/></g><path fill="rgb(16.468811%, 18.03894%, 18.818665%)" d="M 163.578125 150.578125 L 167.484375 150.578125 L 167.484375 154.457031 L 163.578125 154.457031 Z M 163.578125 150.578125 " fill-opacity="1" fill-rule="evenodd"/><path fill="rgb(16.468811%, 18.03894%, 18.818665%)" d="M 150.117188 161.066406 L 152.070312 161.066406 L 152.070312 163.003906 L 150.117188 163.003906 Z M 150.117188 161.066406 " fill-opacity="1" fill-rule="evenodd"/><path fill="rgb(16.468811%, 18.03894%, 18.818665%)" d="M 156.734375 158.222656 L 158.6875 158.222656 L 158.6875 160.160156 L 156.734375 160.160156 Z M 156.734375 158.222656 " fill-opacity="1" fill-rule="evenodd"/><path fill="rgb(16.468811%, 18.03894%, 18.818665%)" d="M 155.050781 167.820312 L 158.550781 167.820312 L 158.550781 171.289062 L 155.050781 171.289062 Z M 155.050781 167.820312 " fill-opacity="1" fill-rule="evenodd"/><path fill="rgb(16.468811%, 18.03894%, 18.818665%)" d="M 153.925781 174.777344 L 156.242188 174.777344 L 156.242188 177.074219 L 153.925781 177.074219 Z M 153.925781 174.777344 " fill-opacity="1" fill-rule="evenodd"/><path fill="rgb(16.468811%, 18.03894%, 18.818665%)" d="M 159.667969 160.066406 L 163.164062 160.066406 L 163.164062 163.535156 L 159.667969 163.535156 Z M 159.667969 160.066406 " fill-opacity="1" fill-rule="evenodd"/><path fill="rgb(16.468811%, 18.03894%, 18.818665%)" d="M 164.042969 156.773438 L 167.542969 156.773438 L 167.542969 160.246094 L 164.042969 160.246094 Z M 164.042969 156.773438 " fill-opacity="1" fill-rule="evenodd"/><path fill="rgb(95.689392%, 39.608765%, 18.818665%)" d="M 149.414062 142.21875 L 155.140625 142.21875 L 155.140625 147.902344 L 149.414062 147.902344 Z M 149.414062 142.21875 " fill-opacity="1" fill-rule="evenodd"/><g clip-path="url(#id4)"><path fill="rgb(16.468811%, 18.03894%, 18.818665%)" d="M 131.058594 154.464844 C 132.226562 154.433594 133.183594 154.125 133.921875 153.523438 C 134.652344 152.925781 135.144531 152.109375 135.390625 151.074219 C 135.636719 150.03125 135.757812 148.246094 135.773438 145.730469 C 135.789062 143.210938 135.835938 141.550781 135.914062 140.753906 C 136.054688 139.488281 136.300781 138.46875 136.675781 137.695312 C 137.050781 136.933594 137.507812 136.316406 138.054688 135.851562 C 138.605469 135.394531 139.304688 135.039062 140.152344 134.800781 C 140.726562 134.652344 141.671875 134.574219 142.976562 134.574219 L 144.25 134.574219 L 144.25 138.128906 L 143.542969 138.128906 C 141.964844 138.128906 140.921875 138.40625 140.398438 138.980469 C 139.886719 139.542969 139.628906 140.800781 139.628906 142.765625 C 139.628906 146.71875 139.542969 149.214844 139.371094 150.261719 C 139.101562 151.875 138.632812 153.117188 137.972656 153.992188 C 137.3125 154.871094 136.277344 155.644531 134.859375 156.324219 C 136.53125 157.019531 137.746094 158.074219 138.5 159.503906 C 139.246094 160.925781 139.625 163.265625 139.625 166.511719 C 139.625 169.449219 139.648438 171.203125 139.710938 171.757812 C 139.839844 172.785156 140.140625 173.503906 140.640625 173.914062 C 141.128906 174.316406 142.101562 174.523438 143.539062 174.523438 L 144.25 174.523438 L 144.25 178.074219 L 142.972656 178.074219 C 141.488281 178.074219 140.40625 177.953125 139.738281 177.714844 C 138.765625 177.367188 137.964844 176.800781 137.324219 176.027344 C 136.6875 175.246094 136.269531 174.265625 136.082031 173.070312 C 135.894531 171.878906 135.785156 169.925781 135.769531 167.207031 C 135.753906 164.496094 135.628906 162.617188 135.386719 161.578125 C 135.136719 160.53125 134.648438 159.714844 133.917969 159.113281 C 133.175781 158.503906 132.222656 158.183594 131.054688 158.160156 L 131.054688 154.46875 Z M 183.386719 154.464844 L 183.386719 158.15625 C 182.222656 158.179688 181.265625 158.496094 180.527344 159.105469 C 179.796875 159.710938 179.304688 160.527344 179.054688 161.554688 C 178.816406 162.589844 178.683594 164.367188 178.675781 166.882812 C 178.65625 169.410156 178.613281 171.0625 178.535156 171.867188 C 178.394531 173.148438 178.144531 174.167969 177.773438 174.933594 C 177.398438 175.695312 176.941406 176.304688 176.394531 176.761719 C 175.84375 177.226562 175.144531 177.574219 174.292969 177.8125 C 173.71875 177.980469 172.777344 178.066406 171.472656 178.066406 L 170.195312 178.066406 L 170.195312 174.515625 L 170.902344 174.515625 C 172.480469 174.515625 173.523438 174.230469 174.046875 173.664062 C 174.558594 173.097656 174.816406 171.824219 174.816406 169.847656 C 174.816406 166.078125 174.886719 163.683594 175.027344 162.671875 C 175.269531 161.003906 175.757812 159.65625 176.480469 158.65625 C 177.210938 157.65625 178.246094 156.875 179.585938 156.316406 C 177.835938 155.488281 176.605469 154.390625 175.890625 153.023438 C 175.171875 151.65625 174.816406 149.355469 174.816406 146.109375 C 174.816406 143.167969 174.785156 141.414062 174.707031 140.835938 C 174.597656 139.820312 174.304688 139.121094 173.804688 138.71875 C 173.3125 138.324219 172.34375 138.125 170.902344 138.125 L 170.195312 138.125 L 170.195312 134.570312 L 171.472656 134.570312 C 172.957031 134.570312 174.039062 134.6875 174.707031 134.933594 C 175.679688 135.265625 176.480469 135.820312 177.121094 136.601562 C 177.757812 137.386719 178.175781 138.375 178.363281 139.566406 C 178.550781 140.765625 178.660156 142.71875 178.675781 145.429688 C 178.683594 148.148438 178.816406 150.019531 179.058594 151.054688 C 179.308594 152.089844 179.796875 152.90625 180.527344 153.511719 C 181.269531 154.117188 182.226562 154.429688 183.390625 154.460938 Z M 183.386719 154.464844 " fill-opacity="1" fill-rule="nonzero"/></g><g fill="rgb(16.468811%, 18.03894%, 18.818665%)" fill-opacity="1"><g transform="translate(83.364161, 197.983053)"><g><path d="M 1.5625 0 C 1.332031 0 1.21875 -0.113281 1.21875 -0.34375 L 1.21875 -13.65625 C 1.21875 -13.882812 1.332031 -14 1.5625 -14 L 6.453125 -14 C 7.453125 -14 8.328125 -13.820312 9.078125 -13.46875 C 9.835938 -13.113281 10.421875 -12.613281 10.828125 -11.96875 C 11.242188 -11.332031 11.453125 -10.597656 11.453125 -9.765625 L 11.453125 -4.234375 C 11.453125 -3.398438 11.242188 -2.660156 10.828125 -2.015625 C 10.421875 -1.378906 9.835938 -0.882812 9.078125 -0.53125 C 8.328125 -0.175781 7.453125 0 6.453125 0 Z M 4.046875 -2.546875 C 4.046875 -2.460938 4.082031 -2.421875 4.15625 -2.421875 L 6.5625 -2.421875 C 7.175781 -2.421875 7.671875 -2.625 8.046875 -3.03125 C 8.429688 -3.445312 8.628906 -4.003906 8.640625 -4.703125 L 8.640625 -9.296875 C 8.640625 -9.992188 8.445312 -10.546875 8.0625 -10.953125 C 7.6875 -11.367188 7.179688 -11.578125 6.546875 -11.578125 L 4.15625 -11.578125 C 4.082031 -11.578125 4.046875 -11.535156 4.046875 -11.453125 Z M 4.046875 -2.546875 "/></g></g></g><g fill="rgb(16.468811%, 18.03894%, 18.818665%)" fill-opacity="1"><g transform="translate(96.219282, 197.983053)"><g><path d="M 12.4375 -10.4375 C 13.476562 -10.4375 14.289062 -10.125 14.875 -9.5 C 15.46875 -8.875 15.765625 -7.992188 15.765625 -6.859375 L 15.765625 -0.34375 C 15.765625 -0.113281 15.648438 0 15.421875 0 L 13.28125 0 C 13.050781 0 12.9375 -0.113281 12.9375 -0.34375 L 12.9375 -6.234375 C 12.9375 -6.785156 12.796875 -7.21875 12.515625 -7.53125 C 12.234375 -7.851562 11.863281 -8.015625 11.40625 -8.015625 C 10.9375 -8.015625 10.550781 -7.851562 10.25 -7.53125 C 9.957031 -7.21875 9.8125 -6.796875 9.8125 -6.265625 L 9.8125 -0.34375 C 9.8125 -0.113281 9.703125 0 9.484375 0 L 7.359375 0 C 7.128906 0 7.015625 -0.113281 7.015625 -0.34375 L 7.015625 -6.234375 C 7.015625 -6.773438 6.867188 -7.207031 6.578125 -7.53125 C 6.285156 -7.851562 5.90625 -8.015625 5.4375 -8.015625 C 5.007812 -8.015625 4.648438 -7.890625 4.359375 -7.640625 C 4.078125 -7.390625 3.910156 -7.035156 3.859375 -6.578125 L 3.859375 -0.34375 C 3.859375 -0.113281 3.742188 0 3.515625 0 L 1.375 0 C 1.15625 0 1.046875 -0.113281 1.046875 -0.34375 L 1.046875 -9.9375 C 1.046875 -10.164062 1.15625 -10.28125 1.375 -10.28125 L 3.515625 -10.28125 C 3.742188 -10.28125 3.859375 -10.164062 3.859375 -9.9375 L 3.859375 -9.296875 C 3.859375 -9.242188 3.875 -9.210938 3.90625 -9.203125 C 3.9375 -9.191406 3.96875 -9.210938 4 -9.265625 C 4.539062 -10.046875 5.378906 -10.4375 6.515625 -10.4375 C 7.179688 -10.4375 7.757812 -10.300781 8.25 -10.03125 C 8.75 -9.757812 9.132812 -9.363281 9.40625 -8.84375 C 9.414062 -8.789062 9.4375 -8.765625 9.46875 -8.765625 C 9.5 -8.773438 9.53125 -8.800781 9.5625 -8.84375 C 9.863281 -9.375 10.257812 -9.769531 10.75 -10.03125 C 11.25 -10.300781 11.8125 -10.4375 12.4375 -10.4375 Z M 12.4375 -10.4375 "/></g></g></g><g fill="rgb(16.468811%, 18.03894%, 18.818665%)" fill-opacity="1"><g transform="translate(113.412699, 197.983053)"><g><path d="M 2.59375 -11.265625 C 2.09375 -11.265625 1.679688 -11.421875 1.359375 -11.734375 C 1.035156 -12.046875 0.875 -12.445312 0.875 -12.9375 C 0.875 -13.4375 1.035156 -13.84375 1.359375 -14.15625 C 1.679688 -14.46875 2.09375 -14.625 2.59375 -14.625 C 3.113281 -14.625 3.53125 -14.46875 3.84375 -14.15625 C 4.15625 -13.851562 4.3125 -13.445312 4.3125 -12.9375 C 4.3125 -12.4375 4.15625 -12.03125 3.84375 -11.71875 C 3.53125 -11.414062 3.113281 -11.265625 2.59375 -11.265625 Z M 1.546875 0 C 1.316406 0 1.203125 -0.113281 1.203125 -0.34375 L 1.203125 -9.9375 C 1.203125 -10.164062 1.316406 -10.28125 1.546875 -10.28125 L 3.6875 -10.28125 C 3.90625 -10.28125 4.015625 -10.164062 4.015625 -9.9375 L 4.015625 -0.34375 C 4.015625 -0.113281 3.90625 0 3.6875 0 Z M 1.546875 0 "/></g></g></g><g fill="rgb(16.468811%, 18.03894%, 18.818665%)" fill-opacity="1"><g transform="translate(119.110652, 197.983053)"><g><path d="M 6.9375 -8.359375 C 6.9375 -8.128906 6.820312 -8.015625 6.59375 -8.015625 L 4.796875 -8.015625 C 4.722656 -8.015625 4.6875 -7.976562 4.6875 -7.90625 L 4.6875 -3.765625 C 4.6875 -3.316406 4.773438 -2.988281 4.953125 -2.78125 C 5.128906 -2.582031 5.414062 -2.484375 5.8125 -2.484375 L 6.375 -2.484375 C 6.601562 -2.484375 6.71875 -2.367188 6.71875 -2.140625 L 6.71875 -0.421875 C 6.71875 -0.203125 6.601562 -0.0820312 6.375 -0.0625 C 5.875 -0.03125 5.507812 -0.015625 5.28125 -0.015625 C 4.175781 -0.015625 3.347656 -0.203125 2.796875 -0.578125 C 2.253906 -0.953125 1.972656 -1.644531 1.953125 -2.65625 L 1.953125 -7.90625 C 1.953125 -7.976562 1.914062 -8.015625 1.84375 -8.015625 L 0.8125 -8.015625 C 0.59375 -8.015625 0.484375 -8.128906 0.484375 -8.359375 L 0.484375 -9.9375 C 0.484375 -10.164062 0.59375 -10.28125 0.8125 -10.28125 L 1.84375 -10.28125 C 1.914062 -10.28125 1.953125 -10.320312 1.953125 -10.40625 L 1.953125 -12.65625 C 1.953125 -12.882812 2.066406 -13 2.296875 -13 L 4.34375 -13 C 4.570312 -13 4.6875 -12.882812 4.6875 -12.65625 L 4.6875 -10.40625 C 4.6875 -10.320312 4.722656 -10.28125 4.796875 -10.28125 L 6.59375 -10.28125 C 6.820312 -10.28125 6.9375 -10.164062 6.9375 -9.9375 Z M 6.9375 -8.359375 "/></g></g></g><g fill="rgb(16.468811%, 18.03894%, 18.818665%)" fill-opacity="1"><g transform="translate(127.207652, 197.983053)"><g><path d="M 6.15625 -10.421875 C 6.582031 -10.421875 6.9375 -10.34375 7.21875 -10.1875 C 7.375 -10.101562 7.4375 -9.960938 7.40625 -9.765625 L 7.015625 -7.65625 C 7.003906 -7.539062 6.96875 -7.46875 6.90625 -7.4375 C 6.84375 -7.414062 6.75 -7.414062 6.625 -7.4375 C 6.40625 -7.488281 6.210938 -7.515625 6.046875 -7.515625 C 5.953125 -7.515625 5.796875 -7.503906 5.578125 -7.484375 C 5.097656 -7.441406 4.691406 -7.265625 4.359375 -6.953125 C 4.023438 -6.640625 3.859375 -6.222656 3.859375 -5.703125 L 3.859375 -0.34375 C 3.859375 -0.113281 3.742188 0 3.515625 0 L 1.375 0 C 1.15625 0 1.046875 -0.113281 1.046875 -0.34375 L 1.046875 -9.9375 C 1.046875 -10.164062 1.15625 -10.28125 1.375 -10.28125 L 3.515625 -10.28125 C 3.742188 -10.28125 3.859375 -10.164062 3.859375 -9.9375 L 3.859375 -9.3125 C 3.859375 -9.257812 3.867188 -9.226562 3.890625 -9.21875 C 3.921875 -9.207031 3.957031 -9.222656 4 -9.265625 C 4.53125 -10.035156 5.25 -10.421875 6.15625 -10.421875 Z M 6.15625 -10.421875 "/></g></g></g><g fill="rgb(16.468811%, 18.03894%, 18.818665%)" fill-opacity="1"><g transform="translate(135.364634, 197.983053)"><g><path d="M 2.59375 -11.265625 C 2.09375 -11.265625 1.679688 -11.421875 1.359375 -11.734375 C 1.035156 -12.046875 0.875 -12.445312 0.875 -12.9375 C 0.875 -13.4375 1.035156 -13.84375 1.359375 -14.15625 C 1.679688 -14.46875 2.09375 -14.625 2.59375 -14.625 C 3.113281 -14.625 3.53125 -14.46875 3.84375 -14.15625 C 4.15625 -13.851562 4.3125 -13.445312 4.3125 -12.9375 C 4.3125 -12.4375 4.15625 -12.03125 3.84375 -11.71875 C 3.53125 -11.414062 3.113281 -11.265625 2.59375 -11.265625 Z M 1.546875 0 C 1.316406 0 1.203125 -0.113281 1.203125 -0.34375 L 1.203125 -9.9375 C 1.203125 -10.164062 1.316406 -10.28125 1.546875 -10.28125 L 3.6875 -10.28125 C 3.90625 -10.28125 4.015625 -10.164062 4.015625 -9.9375 L 4.015625 -0.34375 C 4.015625 -0.113281 3.90625 0 3.6875 0 Z M 1.546875 0 "/></g></g></g><g fill="rgb(16.468811%, 18.03894%, 18.818665%)" fill-opacity="1"><g transform="translate(141.062584, 197.983053)"><g><path d="M 0.984375 3.984375 C 0.890625 3.984375 0.84375 3.867188 0.84375 3.640625 L 0.84375 2 C 0.84375 1.769531 0.878906 1.65625 0.953125 1.65625 L 1.078125 1.65625 C 1.898438 1.65625 2.488281 1.550781 2.84375 1.34375 C 3.195312 1.144531 3.457031 0.722656 3.625 0.078125 C 3.644531 0.015625 3.644531 -0.0351562 3.625 -0.078125 L 0.40625 -9.90625 C 0.382812 -9.925781 0.375 -9.960938 0.375 -10.015625 C 0.375 -10.097656 0.398438 -10.160156 0.453125 -10.203125 C 0.515625 -10.253906 0.59375 -10.28125 0.6875 -10.28125 L 2.984375 -10.28125 C 3.171875 -10.28125 3.296875 -10.1875 3.359375 -10 L 5 -4.046875 C 5.007812 -3.984375 5.035156 -3.953125 5.078125 -3.953125 C 5.117188 -3.953125 5.144531 -3.984375 5.15625 -4.046875 L 6.71875 -9.984375 C 6.757812 -10.179688 6.882812 -10.28125 7.09375 -10.28125 L 9.40625 -10.28125 C 9.519531 -10.28125 9.601562 -10.242188 9.65625 -10.171875 C 9.707031 -10.097656 9.71875 -10.007812 9.6875 -9.90625 L 6.265625 0.375 C 5.929688 1.351562 5.585938 2.082031 5.234375 2.5625 C 4.890625 3.050781 4.40625 3.410156 3.78125 3.640625 C 3.15625 3.867188 2.269531 3.984375 1.125 3.984375 Z M 0.984375 3.984375 "/></g></g></g><g fill="rgb(16.468811%, 18.03894%, 18.818665%)" fill-opacity="1"><g transform="translate(151.658594, 197.983053)"><g/></g></g><g fill="rgb(16.468811%, 18.03894%, 18.818665%)" fill-opacity="1"><g transform="translate(156.15702, 197.983053)"><g><path d="M 1.578125 0 C 1.347656 0 1.234375 -0.113281 1.234375 -0.34375 L 1.234375 -13.65625 C 1.234375 -13.882812 1.347656 -14 1.578125 -14 L 3.71875 -14 C 3.894531 -14 4.03125 -13.925781 4.125 -13.78125 L 7.015625 -9.09375 C 7.046875 -9.0625 7.078125 -9.046875 7.109375 -9.046875 C 7.140625 -9.046875 7.164062 -9.0625 7.1875 -9.09375 L 10.125 -13.78125 C 10.21875 -13.925781 10.347656 -14 10.515625 -14 L 12.65625 -14 C 12.882812 -14 13 -13.882812 13 -13.65625 L 13 -0.34375 C 13 -0.113281 12.882812 0 12.65625 0 L 10.515625 0 C 10.296875 0 10.1875 -0.113281 10.1875 -0.34375 L 10.1875 -9 C 10.1875 -9.050781 10.164062 -9.082031 10.125 -9.09375 C 10.09375 -9.113281 10.066406 -9.097656 10.046875 -9.046875 L 8.015625 -5.734375 C 7.921875 -5.585938 7.789062 -5.515625 7.625 -5.515625 L 6.59375 -5.515625 C 6.425781 -5.515625 6.296875 -5.585938 6.203125 -5.734375 L 4.203125 -9.046875 C 4.171875 -9.097656 4.140625 -9.113281 4.109375 -9.09375 C 4.078125 -9.082031 4.0625 -9.050781 4.0625 -9 L 4.0625 -0.34375 C 4.0625 -0.113281 3.945312 0 3.71875 0 Z M 1.578125 0 "/></g></g></g><g fill="rgb(16.468811%, 18.03894%, 18.818665%)" fill-opacity="1"><g transform="translate(170.871414, 197.983053)"><g><path d="M 5.15625 -10.4375 C 6.019531 -10.4375 6.789062 -10.285156 7.46875 -9.984375 C 8.15625 -9.691406 8.6875 -9.285156 9.0625 -8.765625 C 9.445312 -8.242188 9.640625 -7.660156 9.640625 -7.015625 L 9.640625 -0.34375 C 9.640625 -0.113281 9.523438 0 9.296875 0 L 7.15625 0 C 6.925781 0 6.8125 -0.113281 6.8125 -0.34375 L 6.8125 -0.8125 C 6.8125 -0.875 6.796875 -0.90625 6.765625 -0.90625 C 6.742188 -0.914062 6.71875 -0.898438 6.6875 -0.859375 C 6.070312 -0.179688 5.15625 0.15625 3.9375 0.15625 C 2.914062 0.15625 2.085938 -0.09375 1.453125 -0.59375 C 0.828125 -1.101562 0.515625 -1.851562 0.515625 -2.84375 C 0.515625 -3.863281 0.875 -4.65625 1.59375 -5.21875 C 2.320312 -5.789062 3.351562 -6.078125 4.6875 -6.078125 L 6.703125 -6.078125 C 6.773438 -6.078125 6.8125 -6.117188 6.8125 -6.203125 L 6.8125 -6.625 C 6.8125 -7.0625 6.675781 -7.398438 6.40625 -7.640625 C 6.132812 -7.890625 5.738281 -8.015625 5.21875 -8.015625 C 4.820312 -8.015625 4.492188 -7.945312 4.234375 -7.8125 C 3.972656 -7.6875 3.796875 -7.503906 3.703125 -7.265625 C 3.617188 -7.078125 3.484375 -6.988281 3.296875 -7 L 1.078125 -7.28125 C 0.972656 -7.289062 0.890625 -7.316406 0.828125 -7.359375 C 0.765625 -7.410156 0.742188 -7.476562 0.765625 -7.5625 C 0.828125 -8.101562 1.054688 -8.59375 1.453125 -9.03125 C 1.847656 -9.476562 2.367188 -9.820312 3.015625 -10.0625 C 3.660156 -10.3125 4.375 -10.4375 5.15625 -10.4375 Z M 4.765625 -1.9375 C 5.335938 -1.9375 5.820312 -2.085938 6.21875 -2.390625 C 6.613281 -2.703125 6.8125 -3.097656 6.8125 -3.578125 L 6.8125 -4.28125 C 6.8125 -4.363281 6.773438 -4.40625 6.703125 -4.40625 L 5.28125 -4.40625 C 4.675781 -4.40625 4.203125 -4.289062 3.859375 -4.0625 C 3.515625 -3.832031 3.34375 -3.507812 3.34375 -3.09375 C 3.34375 -2.738281 3.472656 -2.457031 3.734375 -2.25 C 3.992188 -2.039062 4.335938 -1.9375 4.765625 -1.9375 Z M 4.765625 -1.9375 "/></g></g></g><g fill="rgb(16.468811%, 18.03894%, 18.818665%)" fill-opacity="1"><g transform="translate(181.927253, 197.983053)"><g><path d="M 1.421875 0 C 1.191406 0 1.078125 -0.113281 1.078125 -0.34375 L 1.078125 -13.65625 C 1.078125 -13.882812 1.191406 -14 1.421875 -14 L 3.5625 -14 C 3.789062 -14 3.90625 -13.882812 3.90625 -13.65625 L 3.90625 -0.34375 C 3.90625 -0.113281 3.789062 0 3.5625 0 Z M 1.421875 0 "/></g></g></g><g fill="rgb(16.468811%, 18.03894%, 18.818665%)" fill-opacity="1"><g transform="translate(187.405288, 197.983053)"><g><path d="M 5.15625 -10.4375 C 6.019531 -10.4375 6.789062 -10.285156 7.46875 -9.984375 C 8.15625 -9.691406 8.6875 -9.285156 9.0625 -8.765625 C 9.445312 -8.242188 9.640625 -7.660156 9.640625 -7.015625 L 9.640625 -0.34375 C 9.640625 -0.113281 9.523438 0 9.296875 0 L 7.15625 0 C 6.925781 0 6.8125 -0.113281 6.8125 -0.34375 L 6.8125 -0.8125 C 6.8125 -0.875 6.796875 -0.90625 6.765625 -0.90625 C 6.742188 -0.914062 6.71875 -0.898438 6.6875 -0.859375 C 6.070312 -0.179688 5.15625 0.15625 3.9375 0.15625 C 2.914062 0.15625 2.085938 -0.09375 1.453125 -0.59375 C 0.828125 -1.101562 0.515625 -1.851562 0.515625 -2.84375 C 0.515625 -3.863281 0.875 -4.65625 1.59375 -5.21875 C 2.320312 -5.789062 3.351562 -6.078125 4.6875 -6.078125 L 6.703125 -6.078125 C 6.773438 -6.078125 6.8125 -6.117188 6.8125 -6.203125 L 6.8125 -6.625 C 6.8125 -7.0625 6.675781 -7.398438 6.40625 -7.640625 C 6.132812 -7.890625 5.738281 -8.015625 5.21875 -8.015625 C 4.820312 -8.015625 4.492188 -7.945312 4.234375 -7.8125 C 3.972656 -7.6875 3.796875 -7.503906 3.703125 -7.265625 C 3.617188 -7.078125 3.484375 -6.988281 3.296875 -7 L 1.078125 -7.28125 C 0.972656 -7.289062 0.890625 -7.316406 0.828125 -7.359375 C 0.765625 -7.410156 0.742188 -7.476562 0.765625 -7.5625 C 0.828125 -8.101562 1.054688 -8.59375 1.453125 -9.03125 C 1.847656 -9.476562 2.367188 -9.820312 3.015625 -10.0625 C 3.660156 -10.3125 4.375 -10.4375 5.15625 -10.4375 Z M 4.765625 -1.9375 C 5.335938 -1.9375 5.820312 -2.085938 6.21875 -2.390625 C 6.613281 -2.703125 6.8125 -3.097656 6.8125 -3.578125 L 6.8125 -4.28125 C 6.8125 -4.363281 6.773438 -4.40625 6.703125 -4.40625 L 5.28125 -4.40625 C 4.675781 -4.40625 4.203125 -4.289062 3.859375 -4.0625 C 3.515625 -3.832031 3.34375 -3.507812 3.34375 -3.09375 C 3.34375 -2.738281 3.472656 -2.457031 3.734375 -2.25 C 3.992188 -2.039062 4.335938 -1.9375 4.765625 -1.9375 Z M 4.765625 -1.9375 "/></g></g></g><g fill="rgb(16.468811%, 18.03894%, 18.818665%)" fill-opacity="1"><g transform="translate(198.461126, 197.983053)"><g><path d="M 0.984375 3.984375 C 0.890625 3.984375 0.84375 3.867188 0.84375 3.640625 L 0.84375 2 C 0.84375 1.769531 0.878906 1.65625 0.953125 1.65625 L 1.078125 1.65625 C 1.898438 1.65625 2.488281 1.550781 2.84375 1.34375 C 3.195312 1.144531 3.457031 0.722656 3.625 0.078125 C 3.644531 0.015625 3.644531 -0.0351562 3.625 -0.078125 L 0.40625 -9.90625 C 0.382812 -9.925781 0.375 -9.960938 0.375 -10.015625 C 0.375 -10.097656 0.398438 -10.160156 0.453125 -10.203125 C 0.515625 -10.253906 0.59375 -10.28125 0.6875 -10.28125 L 2.984375 -10.28125 C 3.171875 -10.28125 3.296875 -10.1875 3.359375 -10 L 5 -4.046875 C 5.007812 -3.984375 5.035156 -3.953125 5.078125 -3.953125 C 5.117188 -3.953125 5.144531 -3.984375 5.15625 -4.046875 L 6.71875 -9.984375 C 6.757812 -10.179688 6.882812 -10.28125 7.09375 -10.28125 L 9.40625 -10.28125 C 9.519531 -10.28125 9.601562 -10.242188 9.65625 -10.171875 C 9.707031 -10.097656 9.71875 -10.007812 9.6875 -9.90625 L 6.265625 0.375 C 5.929688 1.351562 5.585938 2.082031 5.234375 2.5625 C 4.890625 3.050781 4.40625 3.410156 3.78125 3.640625 C 3.15625 3.867188 2.269531 3.984375 1.125 3.984375 Z M 0.984375 3.984375 "/></g></g></g><g fill="rgb(16.468811%, 18.03894%, 18.818665%)" fill-opacity="1"><g transform="translate(209.057142, 197.983053)"><g><path d="M 6 -2.21875 C 6.875 -2.257812 7.546875 -2.566406 8.015625 -3.140625 C 8.097656 -3.234375 8.1875 -3.28125 8.28125 -3.28125 C 8.363281 -3.28125 8.4375 -3.25 8.5 -3.1875 L 9.640625 -2.078125 C 9.722656 -1.992188 9.765625 -1.914062 9.765625 -1.84375 C 9.765625 -1.75 9.738281 -1.664062 9.6875 -1.59375 C 9.238281 -1.050781 8.671875 -0.625 7.984375 -0.3125 C 7.296875 0 6.546875 0.15625 5.734375 0.15625 C 4.515625 0.15625 3.5 -0.15625 2.6875 -0.78125 C 1.882812 -1.40625 1.34375 -2.265625 1.0625 -3.359375 C 0.894531 -3.941406 0.8125 -4.5625 0.8125 -5.21875 C 0.8125 -5.988281 0.890625 -6.644531 1.046875 -7.1875 C 1.304688 -8.164062 1.835938 -8.953125 2.640625 -9.546875 C 3.453125 -10.148438 4.410156 -10.453125 5.515625 -10.453125 C 6.828125 -10.453125 7.863281 -10.066406 8.625 -9.296875 C 9.394531 -8.523438 9.894531 -7.441406 10.125 -6.046875 C 10.175781 -5.597656 10.210938 -5.109375 10.234375 -4.578125 C 10.234375 -4.347656 10.125 -4.234375 9.90625 -4.234375 L 3.765625 -4.234375 C 3.679688 -4.234375 3.640625 -4.195312 3.640625 -4.125 C 3.679688 -3.84375 3.726562 -3.632812 3.78125 -3.5 C 3.914062 -3.082031 4.175781 -2.765625 4.5625 -2.546875 C 4.957031 -2.328125 5.4375 -2.21875 6 -2.21875 Z M 5.484375 -8.015625 C 5.054688 -8.015625 4.695312 -7.910156 4.40625 -7.703125 C 4.125 -7.503906 3.925781 -7.21875 3.8125 -6.84375 C 3.75 -6.582031 3.710938 -6.414062 3.703125 -6.34375 C 3.691406 -6.257812 3.722656 -6.21875 3.796875 -6.21875 L 7.203125 -6.21875 C 7.265625 -6.21875 7.296875 -6.242188 7.296875 -6.296875 C 7.296875 -6.441406 7.269531 -6.597656 7.21875 -6.765625 C 7.101562 -7.148438 6.894531 -7.453125 6.59375 -7.671875 C 6.300781 -7.898438 5.929688 -8.015625 5.484375 -8.015625 Z M 5.484375 -8.015625 "/></g></g></g><g fill="rgb(16.468811%, 18.03894%, 18.818665%)" fill-opacity="1"><g transform="translate(220.492833, 197.983053)"><g><path d="M 3.984375 0 C 3.796875 0 3.664062 -0.09375 3.59375 -0.28125 L 0.5 -9.90625 C 0.488281 -9.925781 0.484375 -9.960938 0.484375 -10.015625 C 0.484375 -10.097656 0.507812 -10.160156 0.5625 -10.203125 C 0.613281 -10.253906 0.6875 -10.28125 0.78125 -10.28125 L 3.140625 -10.28125 C 3.328125 -10.28125 3.453125 -10.179688 3.515625 -9.984375 L 5.125 -3.984375 C 5.132812 -3.929688 5.160156 -3.90625 5.203125 -3.90625 C 5.242188 -3.90625 5.269531 -3.929688 5.28125 -3.984375 L 6.875 -9.984375 C 6.945312 -10.179688 7.078125 -10.28125 7.265625 -10.28125 L 9.625 -10.265625 C 9.738281 -10.265625 9.820312 -10.226562 9.875 -10.15625 C 9.925781 -10.082031 9.9375 -9.988281 9.90625 -9.875 L 6.8125 -0.28125 C 6.75 -0.09375 6.617188 0 6.421875 0 Z M 3.984375 0 "/></g></g></g><g fill="rgb(95.689392%, 39.608765%, 18.818665%)" fill-opacity="1"><g transform="translate(95.389972, 213.530436)"><g><path d="M 3.578125 0.09375 C 2.960938 0.09375 2.425781 -0.00390625 1.96875 -0.203125 C 1.507812 -0.398438 1.15625 -0.679688 0.90625 -1.046875 C 0.664062 -1.410156 0.546875 -1.832031 0.546875 -2.3125 L 0.546875 -2.5625 C 0.546875 -2.695312 0.609375 -2.765625 0.734375 -2.765625 L 1.71875 -2.765625 C 1.84375 -2.765625 1.90625 -2.703125 1.90625 -2.578125 L 1.90625 -2.390625 C 1.90625 -2.023438 2.066406 -1.71875 2.390625 -1.46875 C 2.710938 -1.226562 3.144531 -1.109375 3.6875 -1.109375 C 4.175781 -1.109375 4.539062 -1.210938 4.78125 -1.421875 C 5.03125 -1.628906 5.15625 -1.894531 5.15625 -2.21875 C 5.15625 -2.445312 5.085938 -2.640625 4.953125 -2.796875 C 4.816406 -2.953125 4.625 -3.09375 4.375 -3.21875 C 4.125 -3.34375 3.742188 -3.503906 3.234375 -3.703125 C 2.671875 -3.910156 2.210938 -4.101562 1.859375 -4.28125 C 1.503906 -4.46875 1.207031 -4.71875 0.96875 -5.03125 C 0.738281 -5.351562 0.625 -5.75 0.625 -6.21875 C 0.625 -6.914062 0.878906 -7.46875 1.390625 -7.875 C 1.898438 -8.289062 2.582031 -8.5 3.4375 -8.5 C 4.039062 -8.5 4.570312 -8.394531 5.03125 -8.1875 C 5.488281 -7.976562 5.84375 -7.6875 6.09375 -7.3125 C 6.351562 -6.9375 6.484375 -6.507812 6.484375 -6.03125 L 6.484375 -5.875 C 6.484375 -5.738281 6.421875 -5.671875 6.296875 -5.671875 L 5.3125 -5.671875 C 5.257812 -5.671875 5.210938 -5.6875 5.171875 -5.71875 C 5.140625 -5.75 5.125 -5.78125 5.125 -5.8125 L 5.125 -5.953125 C 5.125 -6.328125 4.96875 -6.644531 4.65625 -6.90625 C 4.351562 -7.164062 3.929688 -7.296875 3.390625 -7.296875 C 2.941406 -7.296875 2.59375 -7.203125 2.34375 -7.015625 C 2.101562 -6.835938 1.984375 -6.578125 1.984375 -6.234375 C 1.984375 -5.992188 2.046875 -5.796875 2.171875 -5.640625 C 2.304688 -5.492188 2.5 -5.359375 2.75 -5.234375 C 3.007812 -5.109375 3.410156 -4.953125 3.953125 -4.765625 C 4.515625 -4.546875 4.960938 -4.347656 5.296875 -4.171875 C 5.640625 -3.992188 5.929688 -3.75 6.171875 -3.4375 C 6.421875 -3.125 6.546875 -2.726562 6.546875 -2.25 C 6.546875 -1.789062 6.425781 -1.378906 6.1875 -1.015625 C 5.945312 -0.660156 5.601562 -0.382812 5.15625 -0.1875 C 4.707031 0 4.179688 0.09375 3.578125 0.09375 Z M 3.578125 0.09375 "/></g></g></g><g fill="rgb(95.689392%, 39.608765%, 18.818665%)" fill-opacity="1"><g transform="translate(104.005985, 213.530436)"><g><path d="M 3.359375 0.09375 C 2.722656 0.09375 2.175781 -0.0625 1.71875 -0.375 C 1.269531 -0.695312 0.957031 -1.144531 0.78125 -1.71875 C 0.644531 -2.101562 0.578125 -2.554688 0.578125 -3.078125 C 0.578125 -3.597656 0.640625 -4.054688 0.765625 -4.453125 C 0.953125 -5.015625 1.269531 -5.453125 1.71875 -5.765625 C 2.175781 -6.078125 2.726562 -6.234375 3.375 -6.234375 C 3.976562 -6.234375 4.5 -6.078125 4.9375 -5.765625 C 5.382812 -5.453125 5.703125 -5.019531 5.890625 -4.46875 C 6.035156 -4.082031 6.109375 -3.625 6.109375 -3.09375 C 6.109375 -2.59375 6.039062 -2.140625 5.90625 -1.734375 C 5.71875 -1.160156 5.398438 -0.710938 4.953125 -0.390625 C 4.503906 -0.0664062 3.972656 0.09375 3.359375 0.09375 Z M 3.359375 -1.109375 C 3.648438 -1.109375 3.898438 -1.191406 4.109375 -1.359375 C 4.328125 -1.523438 4.484375 -1.757812 4.578125 -2.0625 C 4.660156 -2.320312 4.703125 -2.660156 4.703125 -3.078125 C 4.703125 -3.460938 4.660156 -3.796875 4.578125 -4.078125 C 4.492188 -4.378906 4.34375 -4.613281 4.125 -4.78125 C 3.90625 -4.945312 3.644531 -5.03125 3.34375 -5.03125 C 3.03125 -5.03125 2.765625 -4.945312 2.546875 -4.78125 C 2.335938 -4.613281 2.1875 -4.378906 2.09375 -4.078125 C 2.019531 -3.796875 1.984375 -3.460938 1.984375 -3.078125 C 1.984375 -2.679688 2.019531 -2.34375 2.09375 -2.0625 C 2.1875 -1.757812 2.34375 -1.523438 2.5625 -1.359375 C 2.78125 -1.191406 3.046875 -1.109375 3.359375 -1.109375 Z M 3.359375 -1.109375 "/></g></g></g><g fill="rgb(95.689392%, 39.608765%, 18.818665%)" fill-opacity="1"><g transform="translate(112.225998, 213.530436)"><g><path d="M 3.890625 -6.140625 C 4.015625 -6.140625 4.078125 -6.078125 4.078125 -5.953125 L 4.078125 -5.09375 C 4.078125 -4.96875 4.015625 -4.90625 3.890625 -4.90625 L 2.765625 -4.90625 C 2.710938 -4.90625 2.6875 -4.882812 2.6875 -4.84375 L 2.6875 -0.1875 C 2.6875 -0.0625 2.625 0 2.5 0 L 1.484375 0 C 1.359375 0 1.296875 -0.0625 1.296875 -0.1875 L 1.296875 -4.84375 C 1.296875 -4.882812 1.269531 -4.90625 1.21875 -4.90625 L 0.546875 -4.90625 C 0.410156 -4.90625 0.34375 -4.96875 0.34375 -5.09375 L 0.34375 -5.953125 C 0.34375 -6.078125 0.410156 -6.140625 0.546875 -6.140625 L 1.21875 -6.140625 C 1.269531 -6.140625 1.296875 -6.164062 1.296875 -6.21875 L 1.296875 -6.421875 C 1.296875 -6.941406 1.363281 -7.34375 1.5 -7.625 C 1.632812 -7.90625 1.859375 -8.101562 2.171875 -8.21875 C 2.484375 -8.34375 2.921875 -8.40625 3.484375 -8.40625 L 3.859375 -8.40625 C 3.992188 -8.40625 4.0625 -8.335938 4.0625 -8.203125 L 4.0625 -7.46875 C 4.0625 -7.332031 3.992188 -7.265625 3.859375 -7.265625 L 3.59375 -7.265625 C 3.25 -7.265625 3.007812 -7.195312 2.875 -7.0625 C 2.75 -6.925781 2.6875 -6.679688 2.6875 -6.328125 L 2.6875 -6.21875 C 2.6875 -6.164062 2.710938 -6.140625 2.765625 -6.140625 Z M 3.890625 -6.140625 "/></g></g></g><g fill="rgb(95.689392%, 39.608765%, 18.818665%)" fill-opacity="1"><g transform="translate(118.274002, 213.530436)"><g><path d="M 4 -5.203125 C 4 -5.066406 3.929688 -5 3.796875 -5 L 2.640625 -5 C 2.585938 -5 2.5625 -4.976562 2.5625 -4.9375 L 2.5625 -2.09375 C 2.5625 -1.78125 2.628906 -1.554688 2.765625 -1.421875 C 2.898438 -1.285156 3.109375 -1.21875 3.390625 -1.21875 L 3.703125 -1.21875 C 3.835938 -1.21875 3.90625 -1.15625 3.90625 -1.03125 L 3.90625 -0.234375 C 3.90625 -0.0976562 3.835938 -0.03125 3.703125 -0.03125 L 3.125 -0.015625 C 2.5 -0.015625 2.03125 -0.125 1.71875 -0.34375 C 1.40625 -0.5625 1.242188 -0.972656 1.234375 -1.578125 L 1.234375 -4.9375 C 1.234375 -4.976562 1.207031 -5 1.15625 -5 L 0.546875 -5 C 0.410156 -5 0.34375 -5.066406 0.34375 -5.203125 L 0.34375 -5.9375 C 0.34375 -6.0625 0.410156 -6.125 0.546875 -6.125 L 1.15625 -6.125 C 1.207031 -6.125 1.234375 -6.148438 1.234375 -6.203125 L 1.234375 -7.546875 C 1.234375 -7.671875 1.296875 -7.734375 1.421875 -7.734375 L 2.375 -7.734375 C 2.5 -7.734375 2.5625 -7.671875 2.5625 -7.546875 L 2.5625 -6.203125 C 2.5625 -6.148438 2.585938 -6.125 2.640625 -6.125 L 3.796875 -6.125 C 3.929688 -6.125 4 -6.0625 4 -5.9375 Z M 4 -5.203125 "/></g></g></g><g fill="rgb(95.689392%, 39.608765%, 18.818665%)" fill-opacity="1"><g transform="translate(124.298009, 213.530436)"><g><path d="M 2.234375 0 C 2.117188 0 2.046875 -0.0507812 2.015625 -0.15625 L 0.328125 -5.921875 C 0.316406 -5.929688 0.3125 -5.945312 0.3125 -5.96875 C 0.3125 -6.019531 0.328125 -6.054688 0.359375 -6.078125 C 0.390625 -6.109375 0.429688 -6.125 0.484375 -6.125 L 1.53125 -6.125 C 1.644531 -6.125 1.710938 -6.070312 1.734375 -5.96875 L 2.71875 -2.03125 C 2.726562 -2 2.742188 -1.984375 2.765625 -1.984375 C 2.796875 -1.984375 2.8125 -2 2.8125 -2.03125 L 3.84375 -5.96875 C 3.863281 -6.070312 3.9375 -6.125 4.0625 -6.125 L 4.984375 -6.125 C 5.097656 -6.125 5.171875 -6.070312 5.203125 -5.96875 L 6.25 -2.015625 C 6.257812 -1.984375 6.273438 -1.96875 6.296875 -1.96875 C 6.328125 -1.96875 6.34375 -1.984375 6.34375 -2.015625 L 7.375 -5.96875 C 7.40625 -6.070312 7.476562 -6.125 7.59375 -6.125 L 8.625 -6.125 C 8.6875 -6.125 8.734375 -6.101562 8.765625 -6.0625 C 8.796875 -6.019531 8.804688 -5.96875 8.796875 -5.90625 L 7.09375 -0.15625 C 7.0625 -0.0507812 6.988281 0 6.875 0 L 5.8125 0 C 5.695312 0 5.625 -0.0507812 5.59375 -0.15625 L 4.5625 -3.75 C 4.550781 -3.78125 4.53125 -3.796875 4.5 -3.796875 C 4.476562 -3.796875 4.46875 -3.78125 4.46875 -3.75 L 3.515625 -0.171875 C 3.492188 -0.0546875 3.421875 0 3.296875 0 Z M 2.234375 0 "/></g></g></g><g fill="rgb(95.689392%, 39.608765%, 18.818665%)" fill-opacity="1"><g transform="translate(134.966027, 213.530436)"><g><path d="M 3.078125 -6.234375 C 3.585938 -6.234375 4.035156 -6.144531 4.421875 -5.96875 C 4.804688 -5.789062 5.101562 -5.546875 5.3125 -5.234375 C 5.519531 -4.929688 5.625 -4.582031 5.625 -4.1875 L 5.625 -0.1875 C 5.625 -0.0625 5.5625 0 5.4375 0 L 4.421875 0 C 4.296875 0 4.234375 -0.0625 4.234375 -0.1875 L 4.234375 -0.484375 C 4.234375 -0.523438 4.222656 -0.546875 4.203125 -0.546875 C 4.191406 -0.546875 4.175781 -0.539062 4.15625 -0.53125 C 3.71875 -0.113281 3.140625 0.09375 2.421875 0.09375 C 1.828125 0.09375 1.335938 -0.0546875 0.953125 -0.359375 C 0.578125 -0.660156 0.390625 -1.113281 0.390625 -1.71875 C 0.390625 -2.34375 0.609375 -2.828125 1.046875 -3.171875 C 1.484375 -3.523438 2.097656 -3.703125 2.890625 -3.703125 L 4.15625 -3.703125 C 4.207031 -3.703125 4.234375 -3.722656 4.234375 -3.765625 L 4.234375 -4.046875 C 4.234375 -4.359375 4.140625 -4.597656 3.953125 -4.765625 C 3.765625 -4.941406 3.488281 -5.03125 3.125 -5.03125 C 2.84375 -5.03125 2.609375 -4.976562 2.421875 -4.875 C 2.234375 -4.78125 2.109375 -4.644531 2.046875 -4.46875 C 2.015625 -4.351562 1.945312 -4.300781 1.84375 -4.3125 L 0.75 -4.4375 C 0.6875 -4.445312 0.640625 -4.460938 0.609375 -4.484375 C 0.578125 -4.515625 0.566406 -4.550781 0.578125 -4.59375 C 0.648438 -5.070312 0.914062 -5.460938 1.375 -5.765625 C 1.832031 -6.078125 2.398438 -6.234375 3.078125 -6.234375 Z M 2.8125 -1.015625 C 3.195312 -1.015625 3.53125 -1.113281 3.8125 -1.3125 C 4.09375 -1.519531 4.234375 -1.785156 4.234375 -2.109375 L 4.234375 -2.65625 C 4.234375 -2.707031 4.207031 -2.734375 4.15625 -2.734375 L 3.171875 -2.734375 C 2.742188 -2.734375 2.40625 -2.648438 2.15625 -2.484375 C 1.90625 -2.328125 1.78125 -2.101562 1.78125 -1.8125 C 1.78125 -1.550781 1.875 -1.351562 2.0625 -1.21875 C 2.257812 -1.082031 2.507812 -1.015625 2.8125 -1.015625 Z M 2.8125 -1.015625 "/></g></g></g><g fill="rgb(95.689392%, 39.608765%, 18.818665%)" fill-opacity="1"><g transform="translate(142.766042, 213.530436)"><g><path d="M 3.59375 -6.203125 C 3.832031 -6.203125 4.046875 -6.160156 4.234375 -6.078125 C 4.328125 -6.023438 4.363281 -5.941406 4.34375 -5.828125 L 4.15625 -4.84375 C 4.144531 -4.769531 4.117188 -4.722656 4.078125 -4.703125 C 4.046875 -4.691406 3.992188 -4.695312 3.921875 -4.71875 C 3.828125 -4.75 3.703125 -4.765625 3.546875 -4.765625 C 3.441406 -4.765625 3.363281 -4.757812 3.3125 -4.75 C 2.976562 -4.738281 2.695312 -4.617188 2.46875 -4.390625 C 2.25 -4.171875 2.140625 -3.890625 2.140625 -3.546875 L 2.140625 -0.1875 C 2.140625 -0.0625 2.070312 0 1.9375 0 L 0.9375 0 C 0.8125 0 0.75 -0.0625 0.75 -0.1875 L 0.75 -5.9375 C 0.75 -6.0625 0.8125 -6.125 0.9375 -6.125 L 1.9375 -6.125 C 2.070312 -6.125 2.140625 -6.0625 2.140625 -5.9375 L 2.140625 -5.46875 C 2.140625 -5.4375 2.144531 -5.414062 2.15625 -5.40625 C 2.175781 -5.40625 2.191406 -5.421875 2.203125 -5.453125 C 2.546875 -5.953125 3.007812 -6.203125 3.59375 -6.203125 Z M 3.59375 -6.203125 "/></g></g></g><g fill="rgb(95.689392%, 39.608765%, 18.818665%)" fill-opacity="1"><g transform="translate(148.814044, 213.530436)"><g><path d="M 3.484375 -1.078125 C 3.785156 -1.085938 4.046875 -1.148438 4.265625 -1.265625 C 4.484375 -1.378906 4.660156 -1.535156 4.796875 -1.734375 C 4.835938 -1.804688 4.890625 -1.84375 4.953125 -1.84375 C 4.992188 -1.84375 5.03125 -1.828125 5.0625 -1.796875 L 5.640625 -1.34375 C 5.691406 -1.289062 5.71875 -1.238281 5.71875 -1.1875 C 5.71875 -1.15625 5.707031 -1.117188 5.6875 -1.078125 C 5.457031 -0.710938 5.140625 -0.425781 4.734375 -0.21875 C 4.335938 -0.0078125 3.878906 0.09375 3.359375 0.09375 C 2.722656 0.09375 2.191406 -0.0507812 1.765625 -0.34375 C 1.335938 -0.644531 1.03125 -1.066406 0.84375 -1.609375 C 0.675781 -2.046875 0.59375 -2.539062 0.59375 -3.09375 C 0.59375 -3.644531 0.640625 -4.070312 0.734375 -4.375 C 0.878906 -4.9375 1.175781 -5.382812 1.625 -5.71875 C 2.070312 -6.0625 2.617188 -6.234375 3.265625 -6.234375 C 4.765625 -6.234375 5.640625 -5.410156 5.890625 -3.765625 C 5.929688 -3.503906 5.957031 -3.175781 5.96875 -2.78125 C 5.96875 -2.65625 5.90625 -2.59375 5.78125 -2.59375 L 2.0625 -2.59375 C 2.007812 -2.59375 1.984375 -2.566406 1.984375 -2.515625 C 1.984375 -2.304688 2.007812 -2.128906 2.0625 -1.984375 C 2.15625 -1.703125 2.320312 -1.476562 2.5625 -1.3125 C 2.8125 -1.15625 3.117188 -1.078125 3.484375 -1.078125 Z M 3.25 -5.03125 C 2.945312 -5.03125 2.695312 -4.953125 2.5 -4.796875 C 2.300781 -4.648438 2.164062 -4.445312 2.09375 -4.1875 C 2.039062 -4.03125 2.007812 -3.863281 2 -3.6875 C 1.988281 -3.632812 2.007812 -3.609375 2.0625 -3.609375 L 4.46875 -3.609375 C 4.519531 -3.609375 4.546875 -3.632812 4.546875 -3.6875 C 4.515625 -3.925781 4.488281 -4.066406 4.46875 -4.109375 C 4.40625 -4.390625 4.265625 -4.613281 4.046875 -4.78125 C 3.835938 -4.945312 3.570312 -5.03125 3.25 -5.03125 Z M 3.25 -5.03125 "/></g></g></g><g fill="rgb(95.689392%, 39.608765%, 18.818665%)" fill-opacity="1"><g transform="translate(156.854056, 213.530436)"><g/></g></g><g fill="rgb(95.689392%, 39.608765%, 18.818665%)" fill-opacity="1"><g transform="translate(160.790068, 213.530436)"><g><path d="M 6.5625 -7.390625 C 6.5625 -7.265625 6.5 -7.203125 6.375 -7.203125 L 2.34375 -7.203125 C 2.289062 -7.203125 2.265625 -7.175781 2.265625 -7.125 L 2.265625 -4.90625 C 2.265625 -4.863281 2.289062 -4.84375 2.34375 -4.84375 L 5.03125 -4.84375 C 5.15625 -4.84375 5.21875 -4.773438 5.21875 -4.640625 L 5.21875 -3.828125 C 5.21875 -3.703125 5.15625 -3.640625 5.03125 -3.640625 L 2.34375 -3.640625 C 2.289062 -3.640625 2.265625 -3.613281 2.265625 -3.5625 L 2.265625 -1.265625 C 2.265625 -1.222656 2.289062 -1.203125 2.34375 -1.203125 L 6.375 -1.203125 C 6.5 -1.203125 6.5625 -1.140625 6.5625 -1.015625 L 6.5625 -0.1875 C 6.5625 -0.0625 6.5 0 6.375 0 L 1.0625 0 C 0.9375 0 0.875 -0.0625 0.875 -0.1875 L 0.875 -8.203125 C 0.875 -8.335938 0.9375 -8.40625 1.0625 -8.40625 L 6.375 -8.40625 C 6.5 -8.40625 6.5625 -8.335938 6.5625 -8.203125 Z M 6.5625 -7.390625 "/></g></g></g><g fill="rgb(95.689392%, 39.608765%, 18.818665%)" fill-opacity="1"><g transform="translate(169.430082, 213.530436)"><g><path d="M 3.6875 -6.234375 C 4.34375 -6.234375 4.863281 -6.039062 5.25 -5.65625 C 5.632812 -5.269531 5.828125 -4.742188 5.828125 -4.078125 L 5.828125 -0.1875 C 5.828125 -0.0625 5.765625 0 5.640625 0 L 4.625 0 C 4.5 0 4.4375 -0.0625 4.4375 -0.1875 L 4.4375 -3.796875 C 4.4375 -4.160156 4.328125 -4.457031 4.109375 -4.6875 C 3.898438 -4.914062 3.625 -5.03125 3.28125 -5.03125 C 2.9375 -5.03125 2.660156 -4.914062 2.453125 -4.6875 C 2.242188 -4.46875 2.140625 -4.171875 2.140625 -3.796875 L 2.140625 -0.1875 C 2.140625 -0.0625 2.070312 0 1.9375 0 L 0.9375 0 C 0.8125 0 0.75 -0.0625 0.75 -0.1875 L 0.75 -5.9375 C 0.75 -6.0625 0.8125 -6.125 0.9375 -6.125 L 1.9375 -6.125 C 2.070312 -6.125 2.140625 -6.0625 2.140625 -5.9375 L 2.140625 -5.609375 C 2.140625 -5.578125 2.144531 -5.554688 2.15625 -5.546875 C 2.175781 -5.546875 2.191406 -5.554688 2.203125 -5.578125 C 2.546875 -6.015625 3.039062 -6.234375 3.6875 -6.234375 Z M 3.6875 -6.234375 "/></g></g></g><g fill="rgb(95.689392%, 39.608765%, 18.818665%)" fill-opacity="1"><g transform="translate(177.494104, 213.530436)"><g><path d="M 4.5 -5.9375 C 4.5 -6.0625 4.5625 -6.125 4.6875 -6.125 L 5.703125 -6.125 C 5.828125 -6.125 5.890625 -6.0625 5.890625 -5.9375 L 5.890625 -0.40625 C 5.890625 0.59375 5.597656 1.304688 5.015625 1.734375 C 4.441406 2.171875 3.691406 2.390625 2.765625 2.390625 C 2.546875 2.390625 2.320312 2.378906 2.09375 2.359375 C 1.976562 2.347656 1.921875 2.273438 1.921875 2.140625 L 1.953125 1.25 C 1.953125 1.1875 1.972656 1.140625 2.015625 1.109375 C 2.054688 1.078125 2.109375 1.066406 2.171875 1.078125 C 2.441406 1.097656 2.628906 1.109375 2.734375 1.109375 C 3.335938 1.109375 3.78125 0.988281 4.0625 0.75 C 4.351562 0.507812 4.5 0.113281 4.5 -0.4375 L 4.5 -0.515625 C 4.5 -0.546875 4.488281 -0.566406 4.46875 -0.578125 C 4.457031 -0.585938 4.441406 -0.578125 4.421875 -0.546875 C 4.085938 -0.203125 3.625 -0.03125 3.03125 -0.03125 C 2.507812 -0.03125 2.03125 -0.160156 1.59375 -0.421875 C 1.164062 -0.691406 0.867188 -1.097656 0.703125 -1.640625 C 0.597656 -2.015625 0.546875 -2.5 0.546875 -3.09375 C 0.546875 -3.757812 0.613281 -4.269531 0.75 -4.625 C 0.90625 -5.113281 1.175781 -5.503906 1.5625 -5.796875 C 1.957031 -6.085938 2.421875 -6.234375 2.953125 -6.234375 C 3.566406 -6.234375 4.054688 -6.050781 4.421875 -5.6875 C 4.441406 -5.664062 4.457031 -5.65625 4.46875 -5.65625 C 4.488281 -5.664062 4.5 -5.6875 4.5 -5.71875 Z M 4.421875 -2.046875 C 4.453125 -2.160156 4.472656 -2.285156 4.484375 -2.421875 C 4.492188 -2.566406 4.5 -2.796875 4.5 -3.109375 C 4.5 -3.410156 4.492188 -3.625 4.484375 -3.75 C 4.472656 -3.882812 4.445312 -4.019531 4.40625 -4.15625 C 4.34375 -4.414062 4.210938 -4.625 4.015625 -4.78125 C 3.816406 -4.945312 3.566406 -5.03125 3.265625 -5.03125 C 2.972656 -5.03125 2.726562 -4.945312 2.53125 -4.78125 C 2.332031 -4.625 2.1875 -4.414062 2.09375 -4.15625 C 2 -3.925781 1.953125 -3.570312 1.953125 -3.09375 C 1.953125 -2.601562 1.992188 -2.253906 2.078125 -2.046875 C 2.160156 -1.796875 2.304688 -1.585938 2.515625 -1.421875 C 2.722656 -1.253906 2.976562 -1.171875 3.28125 -1.171875 C 3.59375 -1.171875 3.84375 -1.25 4.03125 -1.40625 C 4.21875 -1.570312 4.347656 -1.785156 4.421875 -2.046875 Z M 4.421875 -2.046875 "/></g></g></g><g fill="rgb(95.689392%, 39.608765%, 18.818665%)" fill-opacity="1"><g transform="translate(185.618115, 213.530436)"><g><path d="M 1.53125 -6.90625 C 1.269531 -6.90625 1.054688 -6.984375 0.890625 -7.140625 C 0.722656 -7.304688 0.640625 -7.519531 0.640625 -7.78125 C 0.640625 -8.03125 0.722656 -8.234375 0.890625 -8.390625 C 1.054688 -8.554688 1.269531 -8.640625 1.53125 -8.640625 C 1.800781 -8.640625 2.015625 -8.554688 2.171875 -8.390625 C 2.335938 -8.234375 2.421875 -8.03125 2.421875 -7.78125 C 2.421875 -7.519531 2.335938 -7.304688 2.171875 -7.140625 C 2.015625 -6.984375 1.800781 -6.90625 1.53125 -6.90625 Z M 1.03125 0 C 0.90625 0 0.84375 -0.0625 0.84375 -0.1875 L 0.84375 -5.9375 C 0.84375 -6.0625 0.90625 -6.125 1.03125 -6.125 L 2.046875 -6.125 C 2.171875 -6.125 2.234375 -6.0625 2.234375 -5.9375 L 2.234375 -0.1875 C 2.234375 -0.0625 2.171875 0 2.046875 0 Z M 1.03125 0 "/></g></g></g><g fill="rgb(95.689392%, 39.608765%, 18.818665%)" fill-opacity="1"><g transform="translate(190.214119, 213.530436)"><g><path d="M 3.6875 -6.234375 C 4.34375 -6.234375 4.863281 -6.039062 5.25 -5.65625 C 5.632812 -5.269531 5.828125 -4.742188 5.828125 -4.078125 L 5.828125 -0.1875 C 5.828125 -0.0625 5.765625 0 5.640625 0 L 4.625 0 C 4.5 0 4.4375 -0.0625 4.4375 -0.1875 L 4.4375 -3.796875 C 4.4375 -4.160156 4.328125 -4.457031 4.109375 -4.6875 C 3.898438 -4.914062 3.625 -5.03125 3.28125 -5.03125 C 2.9375 -5.03125 2.660156 -4.914062 2.453125 -4.6875 C 2.242188 -4.46875 2.140625 -4.171875 2.140625 -3.796875 L 2.140625 -0.1875 C 2.140625 -0.0625 2.070312 0 1.9375 0 L 0.9375 0 C 0.8125 0 0.75 -0.0625 0.75 -0.1875 L 0.75 -5.9375 C 0.75 -6.0625 0.8125 -6.125 0.9375 -6.125 L 1.9375 -6.125 C 2.070312 -6.125 2.140625 -6.0625 2.140625 -5.9375 L 2.140625 -5.609375 C 2.140625 -5.578125 2.144531 -5.554688 2.15625 -5.546875 C 2.175781 -5.546875 2.191406 -5.554688 2.203125 -5.578125 C 2.546875 -6.015625 3.039062 -6.234375 3.6875 -6.234375 Z M 3.6875 -6.234375 "/></g></g></g><g fill="rgb(95.689392%, 39.608765%, 18.818665%)" fill-opacity="1"><g transform="translate(198.278141, 213.530436)"><g><path d="M 3.484375 -1.078125 C 3.785156 -1.085938 4.046875 -1.148438 4.265625 -1.265625 C 4.484375 -1.378906 4.660156 -1.535156 4.796875 -1.734375 C 4.835938 -1.804688 4.890625 -1.84375 4.953125 -1.84375 C 4.992188 -1.84375 5.03125 -1.828125 5.0625 -1.796875 L 5.640625 -1.34375 C 5.691406 -1.289062 5.71875 -1.238281 5.71875 -1.1875 C 5.71875 -1.15625 5.707031 -1.117188 5.6875 -1.078125 C 5.457031 -0.710938 5.140625 -0.425781 4.734375 -0.21875 C 4.335938 -0.0078125 3.878906 0.09375 3.359375 0.09375 C 2.722656 0.09375 2.191406 -0.0507812 1.765625 -0.34375 C 1.335938 -0.644531 1.03125 -1.066406 0.84375 -1.609375 C 0.675781 -2.046875 0.59375 -2.539062 0.59375 -3.09375 C 0.59375 -3.644531 0.640625 -4.070312 0.734375 -4.375 C 0.878906 -4.9375 1.175781 -5.382812 1.625 -5.71875 C 2.070312 -6.0625 2.617188 -6.234375 3.265625 -6.234375 C 4.765625 -6.234375 5.640625 -5.410156 5.890625 -3.765625 C 5.929688 -3.503906 5.957031 -3.175781 5.96875 -2.78125 C 5.96875 -2.65625 5.90625 -2.59375 5.78125 -2.59375 L 2.0625 -2.59375 C 2.007812 -2.59375 1.984375 -2.566406 1.984375 -2.515625 C 1.984375 -2.304688 2.007812 -2.128906 2.0625 -1.984375 C 2.15625 -1.703125 2.320312 -1.476562 2.5625 -1.3125 C 2.8125 -1.15625 3.117188 -1.078125 3.484375 -1.078125 Z M 3.25 -5.03125 C 2.945312 -5.03125 2.695312 -4.953125 2.5 -4.796875 C 2.300781 -4.648438 2.164062 -4.445312 2.09375 -4.1875 C 2.039062 -4.03125 2.007812 -3.863281 2 -3.6875 C 1.988281 -3.632812 2.007812 -3.609375 2.0625 -3.609375 L 4.46875 -3.609375 C 4.519531 -3.609375 4.546875 -3.632812 4.546875 -3.6875 C 4.515625 -3.925781 4.488281 -4.066406 4.46875 -4.109375 C 4.40625 -4.390625 4.265625 -4.613281 4.046875 -4.78125 C 3.835938 -4.945312 3.570312 -5.03125 3.25 -5.03125 Z M 3.25 -5.03125 "/></g></g></g><g fill="rgb(95.689392%, 39.608765%, 18.818665%)" fill-opacity="1"><g transform="translate(206.318153, 213.530436)"><g><path d="M 3.484375 -1.078125 C 3.785156 -1.085938 4.046875 -1.148438 4.265625 -1.265625 C 4.484375 -1.378906 4.660156 -1.535156 4.796875 -1.734375 C 4.835938 -1.804688 4.890625 -1.84375 4.953125 -1.84375 C 4.992188 -1.84375 5.03125 -1.828125 5.0625 -1.796875 L 5.640625 -1.34375 C 5.691406 -1.289062 5.71875 -1.238281 5.71875 -1.1875 C 5.71875 -1.15625 5.707031 -1.117188 5.6875 -1.078125 C 5.457031 -0.710938 5.140625 -0.425781 4.734375 -0.21875 C 4.335938 -0.0078125 3.878906 0.09375 3.359375 0.09375 C 2.722656 0.09375 2.191406 -0.0507812 1.765625 -0.34375 C 1.335938 -0.644531 1.03125 -1.066406 0.84375 -1.609375 C 0.675781 -2.046875 0.59375 -2.539062 0.59375 -3.09375 C 0.59375 -3.644531 0.640625 -4.070312 0.734375 -4.375 C 0.878906 -4.9375 1.175781 -5.382812 1.625 -5.71875 C 2.070312 -6.0625 2.617188 -6.234375 3.265625 -6.234375 C 4.765625 -6.234375 5.640625 -5.410156 5.890625 -3.765625 C 5.929688 -3.503906 5.957031 -3.175781 5.96875 -2.78125 C 5.96875 -2.65625 5.90625 -2.59375 5.78125 -2.59375 L 2.0625 -2.59375 C 2.007812 -2.59375 1.984375 -2.566406 1.984375 -2.515625 C 1.984375 -2.304688 2.007812 -2.128906 2.0625 -1.984375 C 2.15625 -1.703125 2.320312 -1.476562 2.5625 -1.3125 C 2.8125 -1.15625 3.117188 -1.078125 3.484375 -1.078125 Z M 3.25 -5.03125 C 2.945312 -5.03125 2.695312 -4.953125 2.5 -4.796875 C 2.300781 -4.648438 2.164062 -4.445312 2.09375 -4.1875 C 2.039062 -4.03125 2.007812 -3.863281 2 -3.6875 C 1.988281 -3.632812 2.007812 -3.609375 2.0625 -3.609375 L 4.46875 -3.609375 C 4.519531 -3.609375 4.546875 -3.632812 4.546875 -3.6875 C 4.515625 -3.925781 4.488281 -4.066406 4.46875 -4.109375 C 4.40625 -4.390625 4.265625 -4.613281 4.046875 -4.78125 C 3.835938 -4.945312 3.570312 -5.03125 3.25 -5.03125 Z M 3.25 -5.03125 "/></g></g></g><g fill="rgb(95.689392%, 39.608765%, 18.818665%)" fill-opacity="1"><g transform="translate(214.358165, 213.530436)"><g><path d="M 3.59375 -6.203125 C 3.832031 -6.203125 4.046875 -6.160156 4.234375 -6.078125 C 4.328125 -6.023438 4.363281 -5.941406 4.34375 -5.828125 L 4.15625 -4.84375 C 4.144531 -4.769531 4.117188 -4.722656 4.078125 -4.703125 C 4.046875 -4.691406 3.992188 -4.695312 3.921875 -4.71875 C 3.828125 -4.75 3.703125 -4.765625 3.546875 -4.765625 C 3.441406 -4.765625 3.363281 -4.757812 3.3125 -4.75 C 2.976562 -4.738281 2.695312 -4.617188 2.46875 -4.390625 C 2.25 -4.171875 2.140625 -3.890625 2.140625 -3.546875 L 2.140625 -0.1875 C 2.140625 -0.0625 2.070312 0 1.9375 0 L 0.9375 0 C 0.8125 0 0.75 -0.0625 0.75 -0.1875 L 0.75 -5.9375 C 0.75 -6.0625 0.8125 -6.125 0.9375 -6.125 L 1.9375 -6.125 C 2.070312 -6.125 2.140625 -6.0625 2.140625 -5.9375 L 2.140625 -5.46875 C 2.140625 -5.4375 2.144531 -5.414062 2.15625 -5.40625 C 2.175781 -5.40625 2.191406 -5.421875 2.203125 -5.453125 C 2.546875 -5.953125 3.007812 -6.203125 3.59375 -6.203125 Z M 3.59375 -6.203125 "/></g></g></g></svg>